<svg width="12" height="14" viewBox="0 0 12 14" fill="none" xmlns="http://www.w3.org/2000/svg">
<path d="M11.5156 13.1488L7.7515 6.59508C7.84703 6.55368 7.92665 6.48362 7.98078 6.39127L11.2321 0.71651C11.3181 0.570024 11.3181 0.388508 11.2321 0.238837C11.1462 0.0923502 10.9901 0 10.8182 0H7.6687C7.484 0 7.31522 0.108273 7.23561 0.277051L5.84081 3.27047L4.10207 0.242021C4.01609 0.0923503 3.86005 0.00318456 3.68809 0.00318456H0.519523C0.350745 0.00318456 0.194705 0.0923502 0.108723 0.238837C0.0227422 0.385323 0.0195578 0.563655 0.102355 0.713326L3.53842 6.91671C3.47791 6.95811 3.43015 7.01225 3.39193 7.07912L0.0577716 13.1551C-0.0218407 13.3016 -0.0186563 13.4831 0.0641405 13.6296C0.150122 13.7761 0.306162 13.8653 0.47494 13.8653H3.68809C3.87916 13.8653 4.05112 13.7538 4.12437 13.5787L5.4937 10.4515L7.24835 13.6169C7.33115 13.7697 7.49356 13.8621 7.66552 13.8621H11.0984C11.2672 13.8621 11.4264 13.7697 11.5124 13.6232C11.6015 13.4768 11.6015 13.2952 11.5156 13.1488ZM7.6687 0.480858H10.8182L7.5668 6.15562L6.17199 3.69082L7.6687 0.480858ZM3.68809 13.3844H0.478124L3.8091 7.30522L5.26441 9.78912L3.68809 13.3844ZM7.6687 13.3844L0.519523 0.480858H3.68809L11.1016 13.3876H7.6687V13.3844Z" fill="white"/>
</svg>
